<svg xmlns="http://www.w3.org/2000/svg" viewBox="0 0 16 300">
    <defs>
        <symbol id="app-icon-circle-half" viewBox="0 0 16 16">
            <path d="M8 15A7 7 0 1 0 8 1zm0 1A8 8 0 1 1 8 0a8 8 0 0 1 0 16"/>
        </symbol>
        <symbol id="app-icon-sun-fill" viewBox="0 0 16 16">
            <path d="M8 12a4 4 0 1 0 0-8 4 4 0 0 0 0 8M8 0a.5.5 0 0 1 .5.5v2a.5.5 0 0 1-1 0v-2A.5.5 0 0 1 8 0m0 13a.5.5 0 0 1 .5.5v2a.5.5 0 0 1-1 0v-2A.5.5 0 0 1 8 13m8-5a.5.5 0 0 1-.5.5h-2a.5.5 0 0 1 0-1h2a.5.5 0 0 1 .5.5M3 8a.5.5 0 0 1-.5.5h-2a.5.5 0 0 1 0-1h2A.5.5 0 0 1 3 8m10.657-5.657a.5.5 0 0 1 0 .707l-1.414 1.415a.5.5 0 1 1-.707-.708l1.414-1.414a.5.5 0 0 1 .707 0m-9.193 9.193a.5.5 0 0 1 0 .707L3.05 13.657a.5.5 0 0 1-.707-.707l1.414-1.414a.5.5 0 0 1 .707 0m9.193 2.121a.5.5 0 0 1-.707 0l-1.414-1.414a.5.5 0 0 1 .707-.707l1.414 1.414a.5.5 0 0 1 0 .707M4.464 4.465a.5.5 0 0 1-.707 0L2.343 3.05a.5.5 0 1 1 .707-.707l1.414 1.414a.5.5 0 0 1 0 .708"/>
        </symbol>
        <symbol id="app-icon-moon-stars-fill" viewBox="0 0 16 16">
            <path d="M6 .278a.77.77 0 0 1 .08.858 7.2 7.2 0 0 0-.878 3.46c0 4.021 3.278 7.277 7.318 7.277q.792-.001 1.533-.16a.79.79 0 0 1 .81.316.73.73 0 0 1-.031.893A8.35 8.35 0 0 1 8.344 16C3.734 16 0 12.286 0 7.71 0 4.266 2.114 1.312 5.124.06A.75.75 0 0 1 6 .278"/>
            <path d="M10.794 3.148a.217.217 0 0 1 .412 0l.387 1.162c.173.518.579.924 1.097 1.097l1.162.387a.217.217 0 0 1 0 .412l-1.162.387a1.73 1.73 0 0 0-1.097 1.097l-.387 1.162a.217.217 0 0 1-.412 0l-.387-1.162A1.73 1.73 0 0 0 9.31 6.593l-1.162-.387a.217.217 0 0 1 0-.412l1.162-.387a1.73 1.73 0 0 0 1.097-1.097zM13.863.099a.145.145 0 0 1 .274 0l.258.774c.115.346.386.617.732.732l.774.258a.145.145 0 0 1 0 .274l-.774.258a1.16 1.16 0 0 0-.732.732l-.258.774a.145.145 0 0 1-.274 0l-.258-.774a1.16 1.16 0 0 0-.732-.732l-.774-.258a.145.145 0 0 1 0-.274l.774-.258c.346-.115.617-.386.732-.732z"/>
        </symbol>
        <symbol id="app-icon-check2" viewBox="0 0 16 16">
            <path d="M13.854 3.646a.5.5 0 0 1 0 .708l-7 7a.5.5 0 0 1-.708 0l-3.5-3.5a.5.5 0 1 1 .708-.708L6.5 10.293l6.646-6.647a.5.5 0 0 1 .708 0"/>
        </symbol>
        <symbol id="app-icon-plus-lg" viewBox="0 0 16 16">
            <path fill-rule="evenodd"
                  d="M8 2a.5.5 0 0 1 .5.5v5h5a.5.5 0 0 1 0 1h-5v5a.5.5 0 0 1-1 0v-5h-5a.5.5 0 0 1 0-1h5v-5A.5.5 0 0 1 8 2"/>
        </symbol>
        <symbol id="app-icon-arrow-90deg-up" viewBox="0 0 16 16">
            <path fill-rule="evenodd"
                  d="M4.854 1.146a.5.5 0 0 0-.708 0l-4 4a.5.5 0 1 0 .708.708L4 2.707V12.5A2.5 2.5 0 0 0 6.5 15h8a.5.5 0 0 0 0-1h-8A1.5 1.5 0 0 1 5 12.5V2.707l3.146 3.147a.5.5 0 1 0 .708-.708z"/>
        </symbol>
        <symbol id="app-icon-info-circle-fill" viewBox="0 0 16 16">
            <path d="M8 16A8 8 0 1 0 8 0a8 8 0 0 0 0 16m.93-9.412-1 4.705c-.07.34.029.533.304.533.194 0 .487-.07.686-.246l-.088.416c-.287.346-.92.598-1.465.598-.703 0-1.002-.422-.808-1.319l.738-3.468c.064-.293.006-.399-.287-.47l-.451-.081.082-.381 2.29-.287zM8 5.5a1 1 0 1 1 0-2 1 1 0 0 1 0 2"/>
        </symbol>
        <symbol id="app-icon-check-circle-fill" viewBox="0 0 16 16">
            <path d="M16 8A8 8 0 1 1 0 8a8 8 0 0 1 16 0m-3.97-3.03a.75.75 0 0 0-1.08.022L7.477 9.417 5.384 7.323a.75.75 0 0 0-1.06 1.06L6.97 11.03a.75.75 0 0 0 1.079-.02l3.992-4.99a.75.75 0 0 0-.01-1.05z"/>
        </symbol>
        <symbol id="app-icon-exclamation-triangle-fill" viewBox="0 0 16 16">
            <path d="M8.982 1.566a1.13 1.13 0 0 0-1.96 0L.165 13.233c-.457.778.091 1.767.98 1.767h13.713c.889 0 1.438-.99.98-1.767zM8 5c.535 0 .954.462.9.995l-.35 3.507a.552.552 0 0 1-1.1 0L7.1 5.995A.905.905 0 0 1 8 5m.002 6a1 1 0 1 1 0 2 1 1 0 0 1 0-2"/>
        </symbol>
        <symbol id="app-icon-download" viewBox="0 0 16 16">
            <path d="M.5 9.9a.5.5 0 0 1 .5.5v2.5a1 1 0 0 0 1 1h12a1 1 0 0 0 1-1v-2.5a.5.5 0 0 1 1 0v2.5a2 2 0 0 1-2 2H2a2 2 0 0 1-2-2v-2.5a.5.5 0 0 1 .5-.5"/>
            <path d="M7.646 11.854a.5.5 0 0 0 .708 0l3-3a.5.5 0 0 0-.708-.708L8.5 10.293V1.5a.5.5 0 0 0-1 0v8.793L5.354 8.146a.5.5 0 1 0-.708.708z"/>
        </symbol>
        <symbol id="app-icon-people-fill" viewBox="0 0 16 16">
            <path d="M7 14s-1 0-1-1 1-4 5-4 5 3 5 4-1 1-1 1zm4-6a3 3 0 1 0 0-6 3 3 0 0 0 0 6m-5.784 6A2.24 2.24 0 0 1 5 13c0-1.355.68-2.75 1.936-3.72A6.3 6.3 0 0 0 5 9c-4 0-5 3-5 4s1 1 1 1zM4.5 8a2.5 2.5 0 1 0 0-5 2.5 2.5 0 0 0 0 5"/>
        </symbol>
        <symbol id="app-icon-person-badge" viewBox="0 0 16 16">
            <path d="M6.5 2a.5.5 0 0 0 0 1h3a.5.5 0 0 0 0-1zM11 8a3 3 0 1 1-6 0 3 3 0 0 1 6 0"/>
            <path d="M4.5 0A2.5 2.5 0 0 0 2 2.5V14a2 2 0 0 0 2 2h8a2 2 0 0 0 2-2V2.5A2.5 2.5 0 0 0 11.5 0zM3 2.5A1.5 1.5 0 0 1 4.5 1h7A1.5 1.5 0 0 1 13 2.5v10.795a4.2 4.2 0 0 0-.776-.492C11.392 12.387 10.063 12 8 12s-3.392.387-4.224.803a4.2 4.2 0 0 0-.776.492z"/>
        </symbol>
        <symbol id="app-icon-arrow-bar-up" viewBox="0 0 16 16">
            <path fill-rule="evenodd"
                  d="M8 10a.5.5 0 0 0 .5-.5V3.707l2.146 2.147a.5.5 0 0 0 .708-.708l-3-3a.5.5 0 0 0-.708 0l-3 3a.5.5 0 1 0 .708.708L7.5 3.707V9.5a.5.5 0 0 0 .5.5m-7 2.5a.5.5 0 0 1 .5-.5h13a.5.5 0 0 1 0 1h-13a.5.5 0 0 1-.5-.5"/>
        </symbol>
    </defs>
    <!--
    <use href="#app-icon-circle-half" x="0" y="0" width="16" height="16"/>
    <use href="#app-icon-sun-fill" x="0" y="20" width="16" height="16"/>
    <use href="#app-icon-moon-stars-fill" x="0" y="40" width="16" height="16"/>
    <use href="#app-icon-check2" x="0" y="60" width="16" height="16"/>
    <use href="#app-icon-plus-lg" x="0" y="80" width="16" height="16"/>
    <use href="#app-icon-arrow-90deg-up" x="0" y="100" width="16" height="16"/>
    <use href="#app-icon-info-circle-fill" x="0" y="120" width="16" height="16"/>
    <use href="#app-icon-check-circle-fill" x="0" y="140" width="16" height="16"/>
    <use href="#app-icon-exclamation-triangle-fill" x="0" y="160" width="16" height="16"/>
    <use href="#app-icon-download" x="0" y="180" width="16" height="16"/>
    <use href="#app-icon-people-fill" x="0" y="200" width="16" height="16"/>
    <use href="#app-icon-person-badge" x="0" y="220" width="16" height="16"/>
    <use href="#app-icon-arrow-bar-up" x="0" y="240" width="16" height="16"/>
    -->
</svg>
